<?xml version="1.0" standalone="no"?>
<!DOCTYPE svg PUBLIC "-//W3C//DTD SVG 20010904//EN"
 "http://www.w3.org/TR/2001/REC-SVG-20010904/DTD/svg10.dtd">
<svg version="1.0" xmlns="http://www.w3.org/2000/svg"
 width="920.000000pt" height="920.000000pt" viewBox="0 0 920.000000 920.000000"
 preserveAspectRatio="xMidYMid meet">

<g transform="translate(0.000000,920.000000) scale(0.100000,-0.100000)"
fill="#000000" stroke="none">
<path d="M4325 9079 c-529 -40 -1017 -158 -1475 -356 -871 -377 -1618 -1047
-2095 -1878 -265 -461 -457 -998 -539 -1505 -47 -293 -60 -448 -60 -745 0
-278 11 -440 45 -675 186 -1271 901 -2398 1969 -3105 789 -523 1700 -774 2655
-733 1322 58 2554 712 3355 1783 188 251 299 433 435 710 238 485 375 948 440
1490 22 181 31 639 16 849 -104 1463 -912 2784 -2167 3541 -532 322 -1188 543
-1789 604 -55 6 -120 13 -145 16 -88 10 -527 13 -645 4z m510 -349 c401 -25
748 -93 1105 -215 1106 -381 1986 -1197 2454 -2276 354 -817 432 -1813 211
-2685 -355 -1396 -1399 -2507 -2765 -2943 -165 -53 -365 -101 -417 -101 -9 0
-13 171 -15 723 l-4 722 -26 96 c-31 114 -76 226 -123 303 -22 37 -30 58 -22
61 7 2 57 11 112 20 458 76 796 237 1065 505 222 221 346 460 407 785 22 117
25 687 5 835 -64 457 -130 635 -310 833 -43 47 -62 75 -62 94 0 14 13 67 29
118 78 243 76 502 -5 772 -25 85 -48 113 -91 113 -40 0 -191 -61 -273 -110
-139 -83 -320 -251 -400 -370 -71 -106 -111 -121 -186 -69 -53 36 -151 71
-277 98 -183 39 -271 45 -652 45 -307 1 -389 -2 -480 -17 -247 -40 -387 -79
-467 -132 -63 -41 -79 -35 -147 54 -185 243 -392 405 -608 476 -128 42 -144
31 -182 -126 -38 -161 -45 -215 -45 -374 0 -167 15 -264 63 -414 12 -35 21
-67 21 -72 0 -5 -28 -39 -61 -76 -184 -203 -254 -382 -310 -798 -27 -202 -37
-567 -19 -728 55 -513 258 -860 659 -1129 237 -158 503 -255 879 -320 l72 -13
-26 -38 c-73 -108 -127 -268 -155 -462 -6 -44 -15 -88 -20 -97 -14 -26 -53
-43 -149 -66 -117 -29 -210 -36 -309 -23 -319 41 -554 186 -725 446 -141 216
-220 298 -358 370 -102 54 -151 66 -289 72 -144 6 -169 -1 -169 -47 0 -24 10
-36 58 -69 79 -53 161 -130 221 -204 78 -99 225 -336 297 -479 85 -169 128
-233 228 -337 130 -134 251 -209 431 -270 182 -61 428 -78 641 -45 83 13 107
14 119 4 22 -18 23 -621 1 -640 -12 -9 -41 -5 -140 19 -349 85 -726 238 -1061
431 -305 175 -574 386 -865 679 -679 682 -1074 1529 -1176 2518 -19 188 -22
601 -5 778 72 746 317 1420 731 2015 595 855 1505 1463 2505 1673 196 42 337
62 515 77 275 22 353 23 565 10z"/>
</g>
</svg>
